<?xml version="1.0" encoding="UTF-8" standalone="no"?>
<svg width="25px" height="25px" viewBox="0 0 25 25" version="1.1" xmlns="http://www.w3.org/2000/svg" xmlns:xlink="http://www.w3.org/1999/xlink">
    <!-- Generator: Sketch 43.1 (39012) - http://www.bohemiancoding.com/sketch -->
    <title>dividir</title>
    <desc>Created with Sketch.</desc>
    <defs></defs>
    <g id="Page-1" stroke="none" stroke-width="1" fill="none" fill-rule="evenodd">
        <g id="dividir" fill-rule="nonzero" fill="#000000">
            <polygon id="Shape" points="1.41410678 24.2141068 24.2141068 1.41410678 22.7998932 -0.000106781187 -0.000106781187 22.7998932"></polygon>
            <path d="M5.807,10.507 C3.21126168,10.507 1.107,8.40273832 1.107,5.807 C1.107,3.21126168 3.21126168,1.107 5.807,1.107 C8.40273832,1.107 10.507,3.21126168 10.507,5.807 C10.507,8.40273832 8.40273832,10.507 5.807,10.507 Z M5.807,8.507 C7.29816882,8.507 8.507,7.29816882 8.507,5.807 C8.507,4.31583118 7.29816882,3.107 5.807,3.107 C4.31583118,3.107 3.107,4.31583118 3.107,5.807 C3.107,7.29816882 4.31583118,8.507 5.807,8.507 Z" id="Oval"></path>
            <path d="M18.407,23.107 C15.8112617,23.107 13.707,21.0027383 13.707,18.407 C13.707,15.8112617 15.8112617,13.707 18.407,13.707 C21.0027383,13.707 23.107,15.8112617 23.107,18.407 C23.107,21.0027383 21.0027383,23.107 18.407,23.107 Z M18.407,21.107 C19.8981688,21.107 21.107,19.8981688 21.107,18.407 C21.107,16.9158312 19.8981688,15.707 18.407,15.707 C16.9158312,15.707 15.707,16.9158312 15.707,18.407 C15.707,19.8981688 16.9158312,21.107 18.407,21.107 Z" id="Oval"></path>
        </g>
    </g>
</svg>